<svg xmlns="http://www.w3.org/2000/svg" width="41.229" height="41.163" viewBox="0 0 41.229 41.163">
  <g id="check_point_ico" transform="translate(-0.001 0)">
    <path id="패스_105" data-name="패스 105" d="M314.189,450.587A27.975,27.975,0,0,0,309.225,449c-.6.92-1.281,1.966-2,3.094,6.078,1.133,10.1,3.608,10.1,5.884,0,3.076-7.349,6.516-17.185,6.516s-17.185-3.44-17.185-6.516c0-2.264,3.984-4.726,10.01-5.867-.715-1.143-1.388-2.194-1.962-3.1a27.91,27.91,0,0,0-4.912,1.575c-4.234,1.844-6.566,4.469-6.566,7.392s2.332,5.548,6.566,7.392a39.927,39.927,0,0,0,28.1,0c4.234-1.844,6.566-4.469,6.566-7.392S318.423,452.43,314.189,450.587Z" transform="translate(-279.525 -426.761)" fill="#fff"/>
    <path id="패스_103" data-name="패스 103" d="M597.251,409.046a6.325,6.325,0,1,0,6.423,6.237A6.276,6.276,0,0,0,597.251,409.046Zm0,9.381a3.131,3.131,0,1,1,0-6.262,3.135,3.135,0,1,1,0,6.262Z" transform="translate(-576.587 -402.633)" fill="#fff"/>
    <path id="패스_104" data-name="패스 104" d="M554.431,359.887a12.829,12.829,0,0,0-12.687,12.65,21.92,21.92,0,0,0,2.669,9.232c.3.546.8,1.346,1.417,2.322.546.862,1.186,1.861,1.866,2.948.912,1.457,1.9,3.069,2.822,4.715a4.509,4.509,0,0,0,7.847.018c.943-1.656,1.949-3.276,2.89-4.749.686-1.073,1.336-2.067,1.9-2.943.595-.918,1.1-1.705,1.451-2.311a21.911,21.911,0,0,0,2.656-9.232A12.852,12.852,0,0,0,554.431,359.887Zm7.359,20.335c-.513.869-1.247,1.98-2.079,3.256h0c-.616.944-1.286,1.98-1.96,3.075l-.008.013c-.448.728-.9,1.483-1.334,2.256a2.239,2.239,0,0,1-3.908-.016c-.423-.764-.859-1.508-1.292-2.225l-.012-.02c-.666-1.1-1.326-2.137-1.928-3.074h0c-.838-1.306-1.563-2.422-2.035-3.265a19.007,19.007,0,0,1-2.345-7.685,9.627,9.627,0,0,1,16.278-6.712,9.3,9.3,0,0,1,2.82,6.712A18.17,18.17,0,0,1,561.79,380.222Z" transform="translate(-533.768 -359.887)" fill="#fff"/>
  </g>
</svg>
