<svg id="logo" xmlns="http://www.w3.org/2000/svg" width="263" height="35" viewBox="0 0 263 35">
  <defs>
    <style>
      .cls-1, .cls-3, .cls-4 {
        fill: #fff;
      }

      .cls-1 {
        font-size: 20px;
        font-family: NotoSansCJKkr-Medium, Noto Sans CJK KR;
        font-weight: 500;
        letter-spacing: -0.06em;
      }

      .cls-2 {
        fill: none;
        stroke: #fff;
      }

      .cls-3 {
        stroke: rgba(0,0,0,0);
        stroke-miterlimit: 10;
      }

      .cls-5 {
        fill: #002b51;
      }

      .cls-6 {
        fill: #da0021;
      }
    </style>
  </defs>
  <g id="남북출입사무소" transform="translate(133.445 2)">
    <text id="남북출입사무소-2" data-name="남북출입사무소" class="cls-1" transform="translate(7.555 23)"><tspan x="0" y="0">남북출입사무소</tspan></text>
    <line id="선_1" data-name="선 1" class="cls-2" y2="27.696" transform="translate(0 2.157)"/>
  </g>
  <g id="TEXT" transform="translate(40.449 2.974)">
    <path id="합치기_2" data-name="합치기 2" class="cls-3" d="M25.518,7.331l.694-1.718L24.622,1.726h.951l1.1,2.758L27.76,1.726H28.7l-2.25,5.6ZM72.382,5.253a2.015,2.015,0,0,1-.625-1.5,2.029,2.029,0,0,1,.625-1.508,2.175,2.175,0,0,1,3.027,0A2.036,2.036,0,0,1,76.03,3.75a2.021,2.021,0,0,1-.622,1.5,2.184,2.184,0,0,1-3.027,0Zm.661-2.475a1.383,1.383,0,0,0-.358.972,1.364,1.364,0,0,0,.358.971,1.144,1.144,0,0,0,1.709,0,1.365,1.365,0,0,0,.359-.971,1.384,1.384,0,0,0-.359-.972,1.13,1.13,0,0,0-1.709,0Zm-10.389,2.7a1.188,1.188,0,0,1-.448-.939,1.22,1.22,0,0,1,.557-1.025,2.58,2.58,0,0,1,1.468-.354h.951a.662.662,0,0,0-.307-.594,1.656,1.656,0,0,0-.886-.2h-.025a3.005,3.005,0,0,0-1.163.257l-.233-.717a3.614,3.614,0,0,1,1.4-.283h.018a2.651,2.651,0,0,1,1.559.391,1.431,1.431,0,0,1,.544,1.247v2.5h-.87V5.322a1.755,1.755,0,0,1-.634.4,2.148,2.148,0,0,1-.761.141A1.737,1.737,0,0,1,62.654,5.479ZM63.4,4.056a.594.594,0,0,0-.267.484.517.517,0,0,0,.226.427,1.021,1.021,0,0,0,.622.169,1.554,1.554,0,0,0,.7-.174,1.281,1.281,0,0,0,.5-.4V3.88h-.814A1.9,1.9,0,0,0,63.4,4.056ZM58.5,5.242a2.026,2.026,0,0,1,0-2.987,2.32,2.32,0,0,1,1.666-.626,2.476,2.476,0,0,1,1.483.508l-.3.718a1.947,1.947,0,0,0-1.184-.467,1.354,1.354,0,0,0-1.009.394,1.333,1.333,0,0,0-.386.968,1.319,1.319,0,0,0,.386.963,1.359,1.359,0,0,0,1.009.391,2.011,2.011,0,0,0,1.2-.459l.3.716a2.447,2.447,0,0,1-1.5.5A2.328,2.328,0,0,1,58.5,5.242ZM41.225,3.411V.145h.936v3.3q0,1.621,1.217,1.621,1.2,0,1.2-1.621V.145h.942V3.411q0,2.452-2.145,2.452T41.225,3.411ZM31.663,5.253a2.015,2.015,0,0,1-.625-1.5,2.029,2.029,0,0,1,.625-1.508,2.175,2.175,0,0,1,3.027,0,2.036,2.036,0,0,1,.622,1.508,2.021,2.021,0,0,1-.622,1.5,2.184,2.184,0,0,1-3.027,0Zm.662-2.475a1.384,1.384,0,0,0-.359.972,1.365,1.365,0,0,0,.359.971,1.144,1.144,0,0,0,1.709,0,1.365,1.365,0,0,0,.359-.971,1.384,1.384,0,0,0-.359-.972,1.13,1.13,0,0,0-1.709,0ZM15.669,5.572a1.709,1.709,0,0,1-.556-.556l.572-.589a2.019,2.019,0,0,0,.531.516,1.157,1.157,0,0,0,.606.17,1.012,1.012,0,0,0,.52-.125.377.377,0,0,0,.213-.335.363.363,0,0,0-.206-.327,3.324,3.324,0,0,0-.487-.222c-.221-.069-.446-.148-.678-.233a1.545,1.545,0,0,1-.685-.435.93.93,0,0,1-.219-.606,1.038,1.038,0,0,1,.468-.851,1.982,1.982,0,0,1,2.21-.029,1.28,1.28,0,0,1,.347.42l-.565.548a1.111,1.111,0,0,0-.266-.315.977.977,0,0,0-.67-.233.709.709,0,0,0-.408.117.332.332,0,0,0-.173.277.352.352,0,0,0,.193.3,2.449,2.449,0,0,0,.572.234c.092.027.2.059.314.1a2.2,2.2,0,0,1,.892.5,1.009,1.009,0,0,1,.3.734,1.068,1.068,0,0,1-.483.866,1.984,1.984,0,0,1-1.234.367A2.116,2.116,0,0,1,15.669,5.572Zm63.819.193V3.654a1.727,1.727,0,0,0-.211-.957.725.725,0,0,0-.645-.31.756.756,0,0,0-.438.148.942.942,0,0,0-.328.407,1.913,1.913,0,0,0-.137.791V5.765h-.912V1.726h.88v.54a1.221,1.221,0,0,1,.467-.46,1.3,1.3,0,0,1,.661-.177,1.457,1.457,0,0,1,1.149.489,1.894,1.894,0,0,1,.431,1.3V5.765ZM70,5.765V1.726h.92V5.765Zm-1.345,0a1.325,1.325,0,0,1-.952-.29,1.149,1.149,0,0,1-.3-.863V2.468h-.694V1.726h.694V.428h.926v1.3h.879v.742h-.879V4.524a.481.481,0,0,0,.142.4.641.641,0,0,0,.4.109h.338v.733Zm-12.567,0V1.726h.92V5.765Zm-2.507,0v-3.3h-.694V1.726h.694V1.3A1.11,1.11,0,0,1,53.9.44a1.4,1.4,0,0,1,.973-.3h.443V.879h-.266a.647.647,0,0,0-.4.109.479.479,0,0,0-.14.4v.339h.806v.742H54.51v3.3Zm-2.289,0V1.726h.92V5.765Zm-2.007,0V3.654a1.736,1.736,0,0,0-.209-.957.727.727,0,0,0-.644-.31.761.761,0,0,0-.44.148.953.953,0,0,0-.327.407,1.913,1.913,0,0,0-.137.791V5.765h-.913V1.726H47.5v.54a1.238,1.238,0,0,1,.469-.46,1.3,1.3,0,0,1,.661-.177,1.459,1.459,0,0,1,1.149.489,1.9,1.9,0,0,1,.432,1.3V5.765Zm-12.985,0v-3.3h-.694V1.726H36.3V1.3A1.11,1.11,0,0,1,36.62.44a1.392,1.392,0,0,1,.972-.3h.444V.879h-.266a.643.643,0,0,0-.4.109.477.477,0,0,0-.141.4v.339h.806v.742h-.806v3.3Zm-14.258,0V1.726h.863v.6a1.434,1.434,0,0,1,.492-.46,1.539,1.539,0,0,1,.814-.209h.064v.822h-.1a1.218,1.218,0,0,0-.911.347,1.513,1.513,0,0,0-.315,1.057V5.765Zm-1.32,0a1.328,1.328,0,0,1-.952-.29,1.152,1.152,0,0,1-.3-.863V2.468h-.694V1.726h.694V.428H20.4v1.3h.878v.742H20.4V4.524a.484.484,0,0,0,.141.4.642.642,0,0,0,.4.109h.339v.733Zm-7.279,0V1.726h.92V5.765Zm-2.005,0V3.654a1.735,1.735,0,0,0-.21-.957.727.727,0,0,0-.645-.31.756.756,0,0,0-.439.148.947.947,0,0,0-.327.407,1.913,1.913,0,0,0-.137.791V5.765H8.77V1.726h.878v.54a1.24,1.24,0,0,1,.467-.46,1.307,1.307,0,0,1,.662-.177,1.458,1.458,0,0,1,1.149.489,1.894,1.894,0,0,1,.431,1.3V5.765Zm-4.709,0V1.726h.92V5.765Zm-2.021,0V1.242L3.242,5.765H2.37L.9,1.242V5.765H0V.145H1.386l1.42,4.379L4.225.145H5.611v5.62ZM70.036,1a.559.559,0,0,1-.174-.408.569.569,0,0,1,.174-.415.583.583,0,0,1,.831,0,.569.569,0,0,1,.174.415A.559.559,0,0,1,70.867,1a.583.583,0,0,1-.831,0ZM56.124,1a.56.56,0,0,1-.172-.408.57.57,0,0,1,.172-.415.585.585,0,0,1,.832,0,.568.568,0,0,1,.173.415A.558.558,0,0,1,56.956,1a.585.585,0,0,1-.832,0ZM51.33,1a.554.554,0,0,1-.173-.408A.564.564,0,0,1,51.33.174a.585.585,0,0,1,.832,0,.568.568,0,0,1,.173.415A.558.558,0,0,1,52.161,1a.585.585,0,0,1-.832,0ZM13.481,1a.555.555,0,0,1-.174-.408.565.565,0,0,1,.174-.415.583.583,0,0,1,.831,0,.564.564,0,0,1,.173.415A.554.554,0,0,1,14.312,1a.583.583,0,0,1-.831,0ZM6.767,1A.555.555,0,0,1,6.593.589.565.565,0,0,1,6.767.174a.583.583,0,0,1,.831,0,.564.564,0,0,1,.173.415A.554.554,0,0,1,7.6,1a.583.583,0,0,1-.831,0Z" transform="translate(0.001 21.843)"/>
    <path id="합치기_1" data-name="합치기 1" class="cls-3" d="M5.822,16.293A4.108,4.108,0,0,1,4.588,15.5a3.657,3.657,0,0,1-.828-1.139,3.25,3.25,0,0,1-.31-1.4,3.2,3.2,0,0,1,.31-1.4,3.707,3.707,0,0,1,.828-1.128,4.086,4.086,0,0,1,1.234-.791,3.858,3.858,0,0,1,1.5-.293,3.792,3.792,0,0,1,1.493.293,4.149,4.149,0,0,1,1.226.791,3.758,3.758,0,0,1,.826,1.128,3.19,3.19,0,0,1,.312,1.4,3.235,3.235,0,0,1-.312,1.4,3.706,3.706,0,0,1-.826,1.139,4.172,4.172,0,0,1-1.226.791,3.812,3.812,0,0,1-1.493.292A3.878,3.878,0,0,1,5.822,16.293Zm.108-4.729a1.884,1.884,0,0,0-.578,1.378,1.854,1.854,0,0,0,.578,1.37,1.915,1.915,0,0,0,1.4.568,1.942,1.942,0,0,0,1.386-3.315,1.874,1.874,0,0,0-1.386-.577A1.9,1.9,0,0,0,5.929,11.564Zm36.6,4.283V11.757H36.239V10.016H50.814v1.741H44.5v4.089ZM19.473,15.59V11.164H29.962V9.848H19.473V8.3H31.934V12.64H21.446v1.334H32.113V15.59ZM0,9.066V7.448H6.311V6.417H1.174V.178H13.386V1.795H3.093v.783H13.386V4.053H3.093v.8H13.422V6.417H8.248V7.448h6.329V9.066ZM37.411,7.882V.256h1.936V2.265h8.338V.256h1.957V7.882Zm1.936-1.724h8.338V3.971H39.348Zm-18.6.927a3.93,3.93,0,0,1-1.254-.809,4.09,4.09,0,0,1-.835-1.156A3.213,3.213,0,0,1,18.336,3.7a3.275,3.275,0,0,1,.319-1.431,4.3,4.3,0,0,1,.835-1.182A4.089,4.089,0,0,1,20.745.292a4.118,4.118,0,0,1,4.328.792,4.249,4.249,0,0,1,.835,1.182A3.259,3.259,0,0,1,26.228,3.7a3.2,3.2,0,0,1-.321,1.423,4.045,4.045,0,0,1-.835,1.156,3.913,3.913,0,0,1-1.253.809,4.19,4.19,0,0,1-3.075,0Zm.062-4.827A1.938,1.938,0,0,0,20.184,3.7a1.91,1.91,0,0,0,.623,1.431,2.124,2.124,0,0,0,2.95,0A1.913,1.913,0,0,0,24.379,3.7a1.941,1.941,0,0,0-.622-1.439,2.1,2.1,0,0,0-2.95,0ZM29.962,7.2V0h1.973V7.2Z"/>
  </g>
  <g id="CI">
    <circle id="타원_1" data-name="타원 1" class="cls-4" cx="17.5" cy="17.5" r="17.5"/>
    <path id="패스_1" data-name="패스 1" class="cls-5" d="M68.692,22.981A5.748,5.748,0,0,0,60.518,24.7a5.752,5.752,0,0,1-10.4-1.58h0c0-.023-.01-.041-.015-.061s-.013-.047-.019-.074a7.348,7.348,0,0,1-.293-2.283c0-5.154,5.287-10.89,12.9-10.89A14.516,14.516,0,0,1,76.1,19.044c-.018-.059-.036-.116-.056-.175A16.423,16.423,0,0,0,44.088,24.2c0,8.106,5.848,15.044,13.958,15.044a13.191,13.191,0,0,0,12.81-8.626A6.332,6.332,0,0,0,68.692,22.981Z" transform="translate(-42.829 -6.765)"/>
    <path id="패스_2" data-name="패스 2" class="cls-6" d="M88.079,23.6a14.473,14.473,0,0,0-13.511-9.554c-7.617,0-12.9,5.736-12.9,10.89a7.348,7.348,0,0,0,.293,2.283,4.79,4.79,0,0,1-.151-1.171c0-5.366,5.374-9.087,10.9-9.087A13.541,13.541,0,0,1,86.245,30.5a14.926,14.926,0,0,1-8.274,13.373v0A16.426,16.426,0,0,0,88.8,28.435,16.237,16.237,0,0,0,88.079,23.6Z" transform="translate(-54.702 -11.003)"/>
  </g>
</svg>
